<?xml version="1.0" standalone="no"?>
<!DOCTYPE svg PUBLIC "-//W3C//DTD SVG 20010904//EN"
 "http://www.w3.org/TR/2001/REC-SVG-20010904/DTD/svg10.dtd">
<svg version="1.0" xmlns="http://www.w3.org/2000/svg"
 width="2000.000000pt" height="2000.000000pt" viewBox="0 0 2000.000000 2000.000000"
 preserveAspectRatio="xMidYMid meet">

<g transform="translate(0.000000,2000.000000) scale(0.100000,-0.100000)"
fill="#ffffff" stroke="none">
<path d="M7212 16417 l-452 -452 0 -78 0 -77 3200 0 3200 0 0 73 0 72 -458
458 -457 457 -2290 0 -2290 0 -453 -453z"/>
<path d="M3403 15168 l-453 -381 0 -118 0 -119 2025 0 2025 0 0 500 0 500
-1572 -1 -1573 0 -452 -381z"/>
<path d="M12920 15232 c0 -176 -3 -401 -7 -500 l-6 -182 2016 0 2017 0 0 120
0 119 -142 120 c-79 66 -282 237 -453 380 l-310 260 -1557 1 -1558 0 0 -318z"/>
<path d="M7718 15524 c-53 -16 -113 -70 -133 -118 -7 -17 -16 -52 -19 -78 l-7
-48 225 0 226 0 0 31 c0 151 -148 259 -292 213z"/>
<path d="M8582 15521 c-88 -31 -135 -91 -148 -190 l-7 -51 228 0 228 0 -6 49
c-18 153 -154 242 -295 192z"/>
<path d="M9470 15531 c-97 -30 -155 -99 -167 -202 l-6 -49 227 0 226 0 0 23
c0 13 -7 47 -16 76 -32 110 -160 183 -264 152z"/>
<path d="M10326 15525 c-88 -31 -144 -100 -153 -188 l-6 -57 222 0 221 0 0 44
c0 91 -64 174 -153 201 -61 18 -81 18 -131 0z"/>
<path d="M11191 15525 c-83 -26 -150 -116 -151 -202 l0 -43 220 0 220 0 0 40
c0 89 -68 180 -154 205 -59 18 -78 18 -135 0z"/>
<path d="M12058 15525 c-53 -17 -113 -71 -133 -119 -7 -17 -16 -52 -19 -78
l-7 -48 225 0 226 0 0 34 c0 149 -149 256 -292 211z"/>
<path d="M7560 15035 l0 -215 225 0 225 0 0 215 0 215 -225 0 -225 0 0 -215z"/>
<path d="M8430 15035 l0 -215 225 0 225 0 0 215 0 215 -225 0 -225 0 0 -215z"/>
<path d="M9300 15035 l0 -215 225 0 225 0 0 215 0 215 -225 0 -225 0 0 -215z"/>
<path d="M10170 15035 l0 -215 220 0 220 0 0 215 0 215 -220 0 -220 0 0 -215z"/>
<path d="M11040 15035 l0 -215 220 0 220 0 0 215 0 215 -220 0 -220 0 0 -215z"/>
<path d="M11900 15035 l0 -215 225 0 225 0 0 215 0 215 -225 0 -225 0 0 -215z"/>
<path d="M4760 14289 c-15 -27 -3 -77 20 -89 10 -6 77 -10 149 -10 123 0 131
1 145 22 20 29 20 62 0 82 -13 13 -42 16 -159 16 -135 0 -145 -1 -155 -21z"/>
<path d="M14402 14271 c-23 -14 -27 -85 -7 -105 16 -15 35 -17 157 -14 152 3
158 6 158 64 0 56 -21 64 -166 64 -71 0 -135 -4 -142 -9z"/>
<path d="M14837 14262 c-10 -10 -17 -32 -17 -48 0 -56 7 -59 158 -62 156 -4
172 2 172 62 0 58 -20 66 -167 66 -113 0 -132 -2 -146 -18z"/>
<path d="M5186 14178 c-9 -12 -16 -29 -16 -38 0 -9 7 -26 16 -38 14 -21 22
-22 153 -22 124 0 140 2 156 20 21 23 14 84 -11 94 -9 3 -76 6 -149 6 -127 0
-135 -1 -149 -22z"/>
<path d="M7712 14027 c-82 -30 -137 -105 -144 -197 l-3 -45 223 -3 222 -2 0
32 c0 63 -21 112 -69 159 -64 65 -148 85 -229 56z"/>
<path d="M8575 14024 c-77 -28 -136 -110 -139 -193 l-1 -46 223 -3 222 -2 0
25 c0 162 -156 274 -305 219z"/>
<path d="M9445 14025 c-77 -27 -145 -127 -145 -214 l0 -31 223 2 222 3 -2 48
c-8 147 -156 242 -298 192z"/>
<path d="M10316 14025 c-80 -28 -145 -119 -146 -202 l0 -43 221 0 221 0 -4 60
c-6 80 -43 135 -117 173 -61 30 -114 34 -175 12z"/>
<path d="M11182 14025 c-87 -38 -142 -116 -142 -202 l0 -43 221 0 221 0 -4 55
c-12 146 -168 246 -296 190z"/>
<path d="M12029 14013 c-34 -18 -64 -43 -81 -68 -27 -39 -54 -138 -42 -156 3
-5 104 -9 225 -9 l219 0 0 33 c0 56 -20 107 -58 149 -73 81 -167 99 -263 51z"/>
<path d="M4126 13960 c-86 -27 -156 -120 -156 -207 l0 -43 226 0 227 0 -6 49
c-10 85 -51 147 -121 183 -44 23 -128 32 -170 18z"/>
<path d="M5076 13955 c-22 -8 -51 -23 -65 -33 -41 -30 -81 -103 -88 -160 l-6
-52 227 0 226 0 0 43 c0 59 -41 138 -89 171 -67 47 -133 57 -205 31z"/>
<path d="M6025 13955 c-80 -28 -145 -124 -145 -212 l0 -33 226 0 227 0 -6 49
c-18 155 -160 246 -302 196z"/>
<path d="M13727 13956 c-86 -31 -138 -99 -152 -198 l-7 -48 231 0 232 0 -6 48
c-18 125 -109 211 -225 211 -19 0 -52 -6 -73 -13z"/>
<path d="M14685 13958 c-81 -28 -143 -108 -152 -194 l-6 -54 227 0 226 0 0 43
c-1 142 -159 252 -295 205z"/>
<path d="M15646 13960 c-86 -27 -156 -119 -156 -204 l0 -46 226 0 227 0 -7 52
c-16 118 -95 195 -210 204 -28 2 -64 -1 -80 -6z"/>
<path d="M7564 13747 c-2 -7 -3 -105 -2 -217 l3 -205 223 -3 222 -2 0 220 0
220 -220 0 c-170 0 -222 -3 -226 -13z"/>
<path d="M8434 13747 c-2 -7 -3 -105 -2 -217 l3 -205 223 -3 222 -2 0 220 0
220 -220 0 c-170 0 -222 -3 -226 -13z"/>
<path d="M9300 13540 l0 -220 223 2 222 3 0 215 0 215 -222 3 -223 2 0 -220z"/>
<path d="M10170 13540 l0 -220 220 0 220 0 0 220 0 220 -220 0 -220 0 0 -220z"/>
<path d="M11040 13540 l0 -220 220 0 220 0 0 220 0 220 -220 0 -220 0 0 -220z"/>
<path d="M11904 13747 c-2 -7 -3 -105 -2 -217 l3 -205 223 -3 222 -2 0 220 0
220 -220 0 c-170 0 -222 -3 -226 -13z"/>
<path d="M3970 13465 l0 -215 225 0 225 0 0 215 0 215 -225 0 -225 0 0 -215z"/>
<path d="M4920 13465 l0 -215 225 0 225 0 0 215 0 215 -225 0 -225 0 0 -215z"/>
<path d="M5880 13465 l0 -215 225 0 225 0 0 215 0 215 -225 0 -225 0 0 -215z"/>
<path d="M13570 13465 l0 -215 230 0 230 0 0 215 0 215 -230 0 -230 0 0 -215z"/>
<path d="M14530 13465 l0 -215 225 0 225 0 0 215 0 215 -225 0 -225 0 0 -215z"/>
<path d="M15490 13670 c0 -6 -48 -10 -123 -10 -142 0 -167 -10 -167 -64 0 -60
20 -68 164 -64 l126 3 0 -142 0 -143 225 0 225 0 0 215 0 215 -225 0 c-143 0
-225 -4 -225 -10z"/>
<path d="M3200 13445 c0 -14 5 -25 11 -25 7 0 9 -37 7 -110 l-3 -110 35 0 35
0 -3 101 c-2 63 1 106 7 112 6 6 11 21 11 34 0 21 -4 23 -50 23 -47 0 -50 -2
-50 -25z m50 -136 c0 -59 -4 -99 -10 -99 -6 0 -10 42 -10 106 0 67 4 103 10
99 6 -3 10 -50 10 -106z m17 -46 c-2 -32 -3 -8 -3 52 0 61 1 87 3 58 2 -29 2
-78 0 -110z"/>
<path d="M16604 13335 l1 -135 35 0 35 0 -3 110 c-2 73 0 110 7 110 6 0 11 11
11 25 0 23 -4 25 -43 25 l-43 0 0 -135z m56 -22 c0 -96 -1 -103 -20 -103 -19
0 -20 7 -20 103 0 96 1 103 20 103 19 0 20 -7 20 -103z"/>
<path d="M6102 13078 c-18 -18 -15 -73 7 -92 16 -14 38 -16 157 -14 l139 3 9
28 c6 17 6 37 0 55 l-9 27 -145 3 c-105 2 -149 -1 -158 -10z"/>
<path d="M14116 13054 c-9 -8 -16 -28 -16 -44 0 -54 17 -60 169 -60 93 0 141
4 149 12 20 20 15 86 -7 98 -11 5 -78 10 -150 10 -104 0 -133 -3 -145 -16z"/>
<path d="M4270 12950 c-24 -24 -26 -57 -4 -88 14 -21 22 -22 154 -22 127 0
140 2 150 19 5 11 10 32 10 46 0 14 -5 35 -10 46 -10 17 -22 19 -145 19 -122
0 -137 -2 -155 -20z"/>
<path d="M13726 12858 c-9 -37 -7 -73 6 -86 8 -8 56 -12 149 -12 131 0 139 1
153 22 19 27 20 57 2 81 -11 15 -32 17 -158 17 -143 0 -146 0 -152 -22z"/>
<path d="M3903 12808 c-18 -9 -23 -20 -23 -48 0 -20 5 -41 12 -48 17 -17 289
-17 306 0 20 20 15 86 -7 98 -26 13 -260 12 -288 -2z"/>
<path d="M15236 12584 c-19 -19 -20 -63 -2 -86 11 -16 32 -18 154 -18 156 0
162 3 162 67 0 49 -12 53 -161 53 -112 0 -141 -3 -153 -16z"/>
<path d="M7695 12522 c-72 -35 -114 -96 -130 -189 l-7 -43 226 0 226 0 0 38
c0 57 -47 141 -98 177 -56 38 -155 46 -217 17z"/>
<path d="M8564 12521 c-73 -33 -134 -128 -134 -210 0 -21 5 -21 225 -21 l225
0 0 29 c0 38 -24 103 -51 141 -53 71 -179 100 -265 61z"/>
<path d="M9419 12512 c-66 -34 -107 -94 -116 -170 l-6 -52 227 0 c253 0 234
-7 215 78 -30 142 -189 213 -320 144z"/>
<path d="M10310 12529 c-75 -30 -140 -123 -140 -201 l0 -38 220 0 220 0 0 43
c-1 80 -55 159 -132 191 -42 18 -130 20 -168 5z"/>
<path d="M11165 12522 c-72 -34 -125 -115 -125 -192 l0 -40 221 0 221 0 -4 54
c-6 67 -41 124 -99 163 -55 36 -154 43 -214 15z"/>
<path d="M12035 12521 c-72 -32 -113 -94 -130 -193 l-6 -38 226 0 225 0 0 38
c0 48 -40 133 -76 161 -68 53 -164 66 -239 32z"/>
<path d="M4089 12483 c-74 -38 -111 -93 -117 -173 l-4 -60 227 0 228 0 -6 49
c-20 170 -179 259 -328 184z"/>
<path d="M5060 12495 c-76 -35 -131 -114 -134 -194 l-1 -46 224 -3 223 -2 -4
59 c-5 71 -38 128 -98 167 -51 34 -156 43 -210 19z"/>
<path d="M5999 12482 c-69 -36 -110 -99 -117 -177 l-4 -55 227 0 228 0 -6 54
c-6 62 -23 99 -64 140 -69 70 -174 85 -264 38z"/>
<path d="M13725 12500 c-76 -24 -141 -113 -147 -200 l-3 -45 219 -3 c123 -1
224 2 229 7 15 15 -12 117 -43 159 -42 58 -90 84 -163 88 -34 2 -75 -1 -92 -6z"/>
<path d="M14653 12485 c-75 -38 -123 -117 -123 -202 l0 -33 226 0 226 0 -4 55
c-13 159 -180 252 -325 180z"/>
<path d="M15613 12489 c-76 -38 -123 -112 -123 -194 l0 -45 223 2 222 3 -1 46
c-5 155 -181 258 -321 188z"/>
<path d="M7560 12045 l0 -215 225 0 225 0 0 215 0 215 -225 0 -225 0 0 -215z"/>
<path d="M8430 12045 l0 -215 225 0 225 0 0 215 0 215 -225 0 -225 0 0 -215z"/>
<path d="M9300 12045 l0 -215 225 0 225 0 0 215 0 215 -225 0 -225 0 0 -215z"/>
<path d="M10170 12045 l0 -215 220 0 220 0 0 215 0 215 -220 0 -220 0 0 -215z"/>
<path d="M11040 12045 l0 -215 220 0 220 0 0 215 0 215 -220 0 -220 0 0 -215z"/>
<path d="M11900 12045 l0 -215 225 0 225 0 0 215 0 215 -225 0 -225 0 0 -215z"/>
<path d="M3970 12010 l0 -220 225 0 225 0 0 220 0 220 -225 0 -225 0 0 -220z"/>
<path d="M4924 12217 c-2 -7 -3 -105 -2 -217 l3 -205 223 -3 222 -2 0 220 0
220 -220 0 c-170 0 -222 -3 -226 -13z"/>
<path d="M5880 12010 l0 -220 225 0 225 0 0 220 0 220 -225 0 -225 0 0 -220z"/>
<path d="M13570 12010 l0 -220 230 0 230 0 0 220 0 220 -230 0 -230 0 0 -220z"/>
<path d="M14530 12010 l0 -220 225 0 225 0 0 220 0 220 -225 0 -225 0 0 -220z"/>
<path d="M15490 12010 l0 -220 225 0 225 0 0 220 0 220 -225 0 -225 0 0 -220z"/>
<path d="M3200 12007 c0 -13 5 -28 11 -34 7 -7 10 -49 7 -117 l-3 -106 45 0
c34 0 41 3 32 12 -15 15 -17 204 -2 213 6 3 10 17 10 31 0 22 -4 24 -50 24
-46 0 -50 -2 -50 -23z m50 -137 c0 -55 -4 -102 -10 -105 -6 -4 -10 33 -10 105
0 72 4 109 10 105 6 -3 10 -50 10 -105z m17 -57 c-2 -32 -3 -6 -3 57 0 63 1
89 3 58 2 -32 2 -84 0 -115z"/>
<path d="M16605 11890 l0 -140 35 0 35 0 -3 106 c-3 68 0 110 7 117 6 6 11 21
11 34 0 20 -5 23 -43 23 l-43 0 1 -140z m55 -20 c0 -99 -1 -106 -20 -106 -19
0 -20 7 -20 106 0 99 1 106 20 106 19 0 20 -7 20 -106z"/>
<path d="M5028 11606 c-26 -19 -25 -92 1 -106 11 -5 78 -10 149 -10 112 0 131
2 145 18 23 25 21 68 -3 92 -18 18 -33 20 -147 20 -91 -1 -133 -5 -145 -14z"/>
<path d="M14359 11489 c-10 -27 -10 -36 2 -58 15 -26 15 -26 154 -29 133 -3
141 -2 158 19 20 25 22 57 3 82 -11 15 -32 17 -158 17 l-146 0 -13 -31z"/>
<path d="M15970 11440 c-24 -24 -25 -48 -4 -78 14 -21 22 -22 152 -22 154 1
172 7 172 60 0 53 -18 59 -167 60 -120 0 -135 -2 -153 -20z"/>
<path d="M5432 11368 c-7 -7 -12 -28 -12 -48 0 -20 5 -41 12 -48 8 -8 56 -12
148 -12 120 0 139 2 153 18 20 22 22 73 5 90 -17 17 -289 17 -306 0z"/>
<path d="M14122 11308 c-7 -7 -12 -28 -12 -48 0 -20 5 -41 12 -48 8 -8 56 -12
151 -12 153 0 167 5 167 59 0 55 -16 61 -169 61 -93 0 -141 -4 -149 -12z"/>
<path d="M4145 11051 c-102 -26 -175 -113 -175 -211 l0 -40 225 0 225 0 0 23
c0 40 -27 116 -54 151 -44 58 -150 95 -221 77z"/>
<path d="M5095 11049 c-91 -22 -158 -99 -171 -196 l-7 -53 227 0 226 0 0 40
c0 136 -139 241 -275 209z"/>
<path d="M6055 11051 c-103 -26 -175 -117 -175 -220 l0 -31 225 0 225 0 0 33
c-1 43 -22 100 -54 141 -44 58 -150 95 -221 77z"/>
<path d="M13737 11046 c-83 -22 -148 -102 -162 -199 l-7 -47 231 0 232 0 -7
48 c-15 101 -84 182 -173 201 -61 13 -53 13 -114 -3z"/>
<path d="M14698 11046 c-26 -7 -63 -25 -83 -41 -44 -33 -85 -114 -85 -167 l0
-38 225 0 225 0 0 33 c0 96 -66 183 -159 211 -63 19 -62 19 -123 2z"/>
<path d="M15665 11051 c-102 -26 -175 -113 -175 -211 l0 -40 225 0 225 0 0 23
c0 40 -27 116 -54 151 -44 58 -150 95 -221 77z"/>
<path d="M7729 11036 c-94 -25 -147 -92 -164 -203 l-7 -43 226 0 226 0 0 31
c0 146 -141 254 -281 215z"/>
<path d="M8587 11034 c-86 -27 -157 -126 -157 -221 l0 -23 226 0 227 0 -6 49
c-12 100 -69 168 -163 197 -57 17 -66 17 -127 -2z"/>
<path d="M9462 11035 c-90 -28 -147 -98 -159 -196 l-6 -49 227 0 226 0 0 23
c0 13 -7 47 -16 76 -20 70 -75 125 -145 145 -62 19 -71 19 -127 1z"/>
<path d="M10345 11041 c-103 -25 -175 -115 -175 -218 l0 -33 220 0 220 0 0 45
c0 92 -77 184 -169 204 -57 12 -53 12 -96 2z"/>
<path d="M11215 11041 c-102 -26 -175 -113 -175 -211 l0 -40 220 0 220 0 0 40
c0 131 -140 242 -265 211z"/>
<path d="M12067 11036 c-83 -23 -147 -102 -161 -198 l-7 -48 225 0 226 0 0 31
c0 148 -140 254 -283 215z"/>
<path d="M3970 10555 l0 -215 225 0 225 0 0 215 0 215 -225 0 -225 0 0 -215z"/>
<path d="M4920 10555 l0 -215 225 0 225 0 0 215 0 215 -225 0 -225 0 0 -215z"/>
<path d="M5880 10555 l0 -215 225 0 225 0 0 215 0 215 -225 0 -225 0 0 -215z"/>
<path d="M13570 10555 l0 -215 230 0 230 0 0 215 0 215 -230 0 -230 0 0 -215z"/>
<path d="M14530 10555 l0 -215 225 0 225 0 0 215 0 215 -225 0 -225 0 0 -215z"/>
<path d="M15490 10555 l0 -215 225 0 225 0 0 215 0 215 -225 0 -225 0 0 -215z"/>
<path d="M7560 10545 l0 -215 225 0 225 0 0 215 0 215 -225 0 -225 0 0 -215z"/>
<path d="M8430 10545 l0 -215 225 0 225 0 0 215 0 215 -225 0 -225 0 0 -215z"/>
<path d="M9300 10545 l0 -215 225 0 225 0 0 215 0 215 -225 0 -225 0 0 -215z"/>
<path d="M10170 10545 l0 -215 220 0 220 0 0 215 0 215 -220 0 -220 0 0 -215z"/>
<path d="M11040 10545 l0 -215 220 0 220 0 0 215 0 215 -220 0 -220 0 0 -215z"/>
<path d="M11900 10545 l0 -215 225 0 225 0 0 215 0 215 -225 0 -225 0 0 -215z"/>
<path d="M3200 10560 c0 -16 5 -30 11 -30 7 0 9 -37 7 -110 l-3 -110 45 0 c34
0 41 3 32 12 -15 15 -17 204 -2 213 6 3 10 17 10 31 0 22 -4 24 -50 24 -49 0
-50 -1 -50 -30z m50 -129 c0 -56 -4 -103 -10 -106 -6 -4 -10 32 -10 99 0 64 4
106 10 106 6 0 10 -40 10 -99z m17 -58 c-2 -32 -3 -8 -3 52 0 61 1 87 3 58 2
-29 2 -78 0 -110z"/>
<path d="M16605 10450 l0 -140 35 0 35 0 -3 110 c-2 73 0 110 7 110 6 0 11 14
11 30 0 29 -2 30 -43 30 l-43 0 1 -140z m55 -23 c0 -96 -1 -103 -20 -103 -19
0 -20 7 -20 103 0 96 1 103 20 103 19 0 20 -7 20 -103z"/>
<path d="M14387 10043 c-18 -5 -37 -40 -37 -68 0 -7 7 -21 16 -29 12 -13 40
-16 142 -16 70 0 137 3 150 6 28 8 38 44 20 81 l-13 28 -130 2 c-72 1 -138 -1
-148 -4z"/>
<path d="M3582 9974 c-15 -10 -22 -25 -22 -49 0 -56 24 -65 168 -65 68 0 132
5 143 10 26 14 26 80 1 103 -26 24 -257 25 -290 1z"/>
<path d="M6062 9900 c-16 -26 -15 -51 4 -78 14 -21 22 -22 153 -22 93 0 141 4
149 12 7 7 12 28 12 48 0 20 -5 41 -12 48 -8 8 -57 12 -153 12 -129 0 -141 -2
-153 -20z"/>
<path d="M15127 9852 c-21 -23 -22 -66 -1 -86 12 -13 41 -16 154 -16 152 0
170 6 170 58 0 53 -26 62 -174 62 -116 0 -135 -2 -149 -18z"/>
<path d="M9246 9804 c-70 -22 -121 -59 -155 -113 -56 -86 -61 -130 -61 -498 0
-208 4 -352 11 -385 22 -100 68 -169 149 -217 32 -19 50 -21 208 -21 150 0
178 2 210 19 72 37 119 98 149 196 16 53 18 98 18 395 0 349 -5 399 -46 481
-30 60 -67 97 -127 125 -51 25 -70 28 -182 31 -92 2 -138 -1 -174 -13z m215
-203 l29 -29 0 -379 c0 -409 -1 -416 -54 -442 -42 -20 -87 -4 -109 39 -16 32
-17 68 -15 413 l3 379 28 24 c39 33 81 31 118 -5z"/>
<path d="M8120 9190 l0 -620 135 0 135 0 0 270 0 270 95 0 95 0 0 -270 0 -270
140 0 140 0 -2 618 -3 617 -137 3 -138 3 0 -251 0 -250 -95 0 -95 0 0 250 0
250 -135 0 -135 0 0 -620z"/>
<path d="M9864 9797 c-3 -8 -4 -54 -2 -103 l3 -89 93 -3 92 -3 0 -514 0 -515
140 0 140 0 0 515 0 515 95 0 95 0 0 105 0 105 -325 0 c-262 0 -327 -3 -331
-13z"/>
<path d="M10627 9803 c-4 -3 -7 -282 -7 -620 l0 -613 280 0 280 0 0 90 0 90
-140 0 -140 0 0 185 0 185 105 0 105 0 0 95 0 95 -105 0 -105 0 0 155 0 155
140 0 140 0 0 95 0 95 -273 0 c-151 0 -277 -3 -280 -7z"/>
<path d="M11310 9190 l0 -620 280 0 280 0 0 90 0 90 -145 0 -145 0 0 530 0
530 -135 0 -135 0 0 -620z"/>
<path d="M4128 9590 c-88 -26 -158 -116 -158 -202 l0 -48 226 0 227 0 -6 49
c-18 148 -153 242 -289 201z"/>
<path d="M5060 9580 c-83 -39 -123 -95 -136 -189 l-7 -51 228 0 227 0 -4 54
c-9 113 -91 193 -205 202 -45 4 -68 0 -103 -16z"/>
<path d="M6025 9584 c-81 -30 -144 -118 -145 -201 l0 -43 225 0 225 0 0 31 c0
60 -23 113 -70 159 -67 67 -148 86 -235 54z"/>
<path d="M13727 9586 c-86 -31 -138 -99 -152 -198 l-7 -48 231 0 232 0 -6 48
c-18 125 -109 211 -225 211 -19 0 -52 -6 -73 -13z"/>
<path d="M14680 9587 c-19 -6 -56 -32 -82 -58 -47 -47 -68 -94 -68 -156 l0
-33 225 0 225 0 0 43 c-1 145 -155 250 -300 204z"/>
<path d="M15648 9590 c-88 -26 -149 -102 -156 -192 l-4 -58 227 0 228 0 -7 51
c-8 59 -33 114 -68 146 -55 52 -149 74 -220 53z"/>
<path d="M3970 9095 l0 -215 225 0 225 0 0 215 0 215 -225 0 -225 0 0 -215z"/>
<path d="M4920 9095 l0 -215 225 0 225 0 0 33 0 32 121 -3 c82 -2 125 1 135 9
20 16 18 79 -3 95 -24 18 -239 20 -246 2 -3 -7 -6 49 -6 125 l-1 137 -225 0
-225 0 0 -215z"/>
<path d="M5880 9095 l0 -215 225 0 225 0 0 215 0 215 -225 0 -225 0 0 -215z"/>
<path d="M13570 9095 l0 -215 230 0 230 0 0 215 0 215 -230 0 -230 0 0 -215z"/>
<path d="M14530 9095 l0 -215 225 0 225 0 0 215 0 215 -225 0 -225 0 0 -215z"/>
<path d="M15490 9095 l0 -215 225 0 225 0 0 215 0 215 -225 0 -225 0 0 -215z"/>
<path d="M3200 9120 c0 -16 5 -30 11 -30 7 0 9 -37 7 -110 l-3 -110 45 1 c25
0 39 3 33 6 -16 6 -19 213 -3 213 6 0 10 14 10 30 0 29 -1 30 -50 30 -49 0
-50 -1 -50 -30z m50 -135 c0 -63 -4 -105 -10 -105 -6 0 -10 42 -10 105 0 63 4
105 10 105 6 0 10 -42 10 -105z m17 -52 c-2 -32 -3 -8 -3 52 0 61 1 87 3 58 2
-29 2 -78 0 -110z"/>
<path d="M16604 9010 l1 -140 35 0 35 0 -3 110 c-2 73 0 110 7 110 6 0 11 14
11 30 0 29 -2 30 -43 30 l-43 0 0 -140z m56 -25 c0 -98 -1 -105 -20 -105 -19
0 -20 7 -20 105 0 98 1 105 20 105 19 0 20 -7 20 -105z"/>
<path d="M4356 8735 c-21 -22 -20 -68 2 -88 15 -14 42 -17 155 -17 154 0 161
4 155 78 l-3 37 -147 3 c-123 2 -149 0 -162 -13z"/>
<path d="M13976 8674 c-24 -23 -20 -70 6 -88 29 -20 277 -23 296 -4 7 7 12 28
12 48 0 20 -5 41 -12 48 -8 8 -56 12 -149 12 -112 0 -141 -3 -153 -16z"/>
<path d="M15902 8654 c-28 -19 -29 -67 -2 -94 18 -18 33 -20 139 -20 152 0
171 7 171 58 0 65 -17 72 -161 72 -97 0 -130 -4 -147 -16z"/>
<path d="M4733 8583 c-16 -11 -23 -26 -23 -49 0 -58 16 -64 158 -64 155 0 169
4 177 41 16 73 -16 89 -173 88 -89 0 -122 -4 -139 -16z"/>
<path d="M8759 8289 c-31 -65 -33 -67 -77 -73 -25 -3 -58 -6 -74 -6 l-30 0 51
-59 51 -59 -14 -66 c-7 -36 -12 -66 -10 -66 3 0 32 13 66 29 l62 30 63 -35
c35 -20 63 -32 63 -27 0 4 -5 36 -10 70 l-10 62 50 47 c27 25 47 50 45 55 -3
4 -29 11 -59 14 -29 4 -58 10 -64 14 -6 4 -24 36 -41 71 l-29 65 -33 -66z"/>
<path d="M9343 8286 c-29 -58 -35 -64 -70 -69 -21 -4 -53 -7 -70 -7 -18 0 -33
-3 -33 -7 0 -4 21 -29 47 -55 l47 -47 -13 -67 c-6 -36 -10 -68 -7 -71 2 -2 31
9 63 26 l60 30 63 -35 62 -35 -6 74 -7 74 48 42 c26 24 47 46 46 49 -1 4 -30
12 -65 17 l-63 10 -35 67 -36 68 -31 -64z"/>
<path d="M10512 8286 c-35 -68 -49 -76 -139 -76 -18 0 -33 -3 -33 -7 0 -4 21
-28 46 -54 l46 -47 -11 -67 c-7 -37 -10 -69 -8 -72 3 -2 32 9 64 26 l60 30 61
-35 62 -34 0 28 c-1 15 -5 46 -9 69 -8 42 -8 43 45 93 29 27 49 52 46 54 -4 2
-32 7 -63 11 -31 4 -60 10 -65 13 -5 4 -22 35 -39 69 l-30 63 -33 -64z"/>
<path d="M9930 8290 c-13 -28 -29 -55 -35 -60 -7 -6 -40 -13 -74 -16 -33 -4
-61 -12 -61 -18 0 -5 20 -31 45 -56 l46 -46 -15 -64 c-8 -35 -14 -66 -12 -68
2 -2 31 10 65 27 l60 31 67 -37 66 -36 -5 29 c-22 114 -23 110 32 160 28 25
49 49 46 54 -2 4 -27 10 -55 14 -72 10 -74 11 -105 76 -16 33 -32 60 -35 60
-4 0 -17 -23 -30 -50z"/>
<path d="M11093 8281 l-33 -60 -57 -6 c-92 -10 -92 -10 -36 -68 l50 -52 -12
-65 c-7 -36 -11 -66 -10 -68 2 -2 31 11 64 28 l62 31 61 -36 c33 -20 62 -35
63 -33 1 2 -2 34 -7 73 l-9 69 50 44 c28 24 51 47 51 52 0 4 -26 10 -59 14
-71 8 -83 17 -111 84 -13 28 -25 52 -29 52 -3 0 -21 -27 -38 -59z"/>
<path d="M2507 8023 c-4 -3 -7 -15 -7 -25 0 -17 65 -18 1930 -18 l1930 0 0 25
0 25 -1923 0 c-1058 0 -1927 -3 -1930 -7z"/>
<path d="M13557 8023 c-4 -3 -7 -15 -7 -25 0 -17 69 -18 1931 -18 l1930 0 -3
22 -3 23 -1921 3 c-1056 1 -1924 -1 -1927 -5z"/>
<path d="M3510 7798 c-27 -29 -28 -101 -1 -129 18 -20 29 -21 217 -20 230 2
234 3 234 83 0 35 -6 54 -20 68 -19 19 -33 20 -215 20 -187 0 -195 -1 -215
-22z"/>
<path d="M1630 7530 c-29 -29 -27 -83 5 -108 25 -20 26 -22 23 -144 l-3 -123
-192 -3 -193 -2 0 -125 c0 -103 3 -125 15 -125 11 0 15 21 17 108 l3 107 178
3 177 2 0 -1450 0 -1450 -50 0 -50 0 -1 -482 c-1 -266 -2 -492 -3 -503 -1 -19
-9 -20 -113 -23 l-113 -3 0 -39 0 -40 8775 0 8775 0 0 40 0 40 -247 2 -248 3
-2 500 -2 500 -51 3 -50 3 0 1450 0 1449 178 -2 177 -3 0 -108 c0 -95 2 -107
18 -107 15 0 17 13 17 125 l0 125 -192 2 -193 3 -3 127 c-2 116 -1 127 16 132
19 7 42 45 42 72 0 23 -47 64 -73 64 -66 0 -94 -83 -43 -126 27 -23 27 -24 24
-146 l-3 -123 -192 -3 -193 -2 0 -125 c0 -68 4 -126 8 -129 20 -12 27 17 27
114 l0 105 178 3 177 2 0 -1450 0 -1450 -50 0 c-48 0 -50 -1 -50 -27 0 -16 -1
-241 -3 -501 l-2 -474 -3643 -1 -3642 -2 0 1518 0 1517 -900 0 -900 0 -2
-1516 -3 -1516 -3630 0 -3630 0 -2 494 c-2 271 -3 496 -3 501 0 4 -22 7 -50 7
l-50 0 0 1450 0 1450 178 -2 177 -3 3 -107 c2 -87 6 -108 17 -108 12 0 15 22
15 125 l0 125 -192 2 -193 3 -3 128 c-2 82 1 127 8 127 19 0 50 40 50 65 0 33
-42 75 -75 75 -14 0 -34 -9 -45 -20z m7524 -2606 c18 -18 21 -40 6 -49 -14 -9
-13 -198 1 -212 18 -18 1 -53 -26 -53 -30 0 -47 27 -34 53 12 20 8 203 -4 228
-5 10 -2 22 8 33 20 20 29 20 49 0z"/>
<path d="M14296 7481 c-29 -32 -32 -91 -6 -123 l21 -28 201 0 c229 0 227 -1
228 83 0 34 -5 52 -20 67 -19 19 -33 20 -213 20 -179 0 -195 -2 -211 -19z"/>
<path d="M4825 7218 c-32 -17 -45 -39 -45 -74 0 -45 18 -81 44 -88 11 -3 103
-6 204 -6 169 0 183 1 202 20 30 30 28 103 -5 135 -24 25 -26 25 -202 25 -109
0 -186 -5 -198 -12z"/>
<path d="M13940 7188 c-26 -28 -27 -99 -3 -128 16 -19 29 -20 222 -20 232 0
230 -1 231 81 0 32 -6 52 -20 67 -20 21 -28 22 -215 22 -187 0 -195 -1 -215
-22z"/>
<path d="M8440 6795 l0 -325 180 0 180 0 0 325 0 325 -180 0 -180 0 0 -325z"/>
<path d="M9060 6795 l0 -325 900 0 900 0 0 325 0 325 -900 0 -900 0 0 -325z"/>
<path d="M11120 6795 l0 -325 180 0 180 0 0 325 0 325 -180 0 -180 0 0 -325z"/>
<path d="M5145 6978 c-30 -17 -35 -28 -35 -78 0 -85 14 -90 240 -90 179 0 181
0 205 25 33 32 35 103 4 131 -19 17 -40 19 -208 22 -128 1 -192 -2 -206 -10z"/>
<path d="M16332 6860 c-28 -27 -30 -95 -3 -127 19 -22 24 -23 220 -23 195 0
200 1 215 22 20 29 20 97 0 126 -15 21 -20 22 -213 22 -185 0 -199 -1 -219
-20z"/>
<path d="M2751 6564 c-32 -40 -29 -106 5 -133 25 -19 40 -21 206 -21 224 0
238 5 238 88 0 89 -7 91 -237 92 l-192 0 -20 -26z"/>
<path d="M3584 6346 c-33 -8 -84 -24 -112 -36 l-52 -22 0 -174 0 -174 330 0
330 0 0 159 0 159 -32 20 c-18 11 -69 33 -113 47 -98 34 -255 43 -351 21z"/>
<path d="M5565 6349 c-22 -5 -73 -21 -112 -35 l-73 -26 0 -174 0 -174 335 0
335 0 0 160 0 161 -73 35 c-40 19 -104 41 -142 49 -77 16 -207 18 -270 4z"/>
<path d="M14012 6345 c-35 -8 -87 -25 -117 -39 l-55 -25 0 -170 0 -171 335 0
335 0 0 160 0 161 -73 35 c-129 61 -285 79 -425 49z"/>
<path d="M15975 6344 c-33 -8 -84 -24 -112 -35 l-53 -21 0 -174 0 -174 330 0
330 0 0 164 0 163 -69 32 c-128 59 -294 76 -426 45z"/>
<path d="M8440 4915 l0 -1335 180 0 180 0 0 1335 0 1335 -180 0 -180 0 0
-1335z"/>
<path d="M11120 4915 l0 -1335 180 0 180 0 0 1335 0 1335 -180 0 -180 0 0
-1335z"/>
<path d="M3252 6155 c-65 -68 -95 -111 -129 -187 l-12 -28 114 0 115 0 0 145
c0 80 -4 145 -9 145 -5 0 -40 -34 -79 -75z"/>
<path d="M5252 6194 c-57 -48 -172 -214 -172 -249 0 -3 52 -5 115 -5 l115 0 0
145 c0 80 -3 145 -7 145 -5 0 -27 -17 -51 -36z"/>
<path d="M13708 6187 c-55 -50 -110 -122 -144 -188 -13 -27 -24 -51 -24 -54 0
-3 52 -5 115 -5 l115 0 0 145 c0 80 -3 145 -7 145 -5 0 -29 -19 -55 -43z"/>
<path d="M15656 6168 c-59 -60 -126 -157 -141 -205 -6 -23 -6 -23 104 -23
l111 0 0 145 c0 80 -3 145 -6 145 -3 0 -34 -28 -68 -62z"/>
<path d="M4160 6072 l0 -132 90 0 c50 0 90 2 90 5 0 29 -112 196 -159 239
l-21 19 0 -131z"/>
<path d="M6120 6072 l0 -132 95 0 95 0 -12 28 c-23 52 -96 157 -137 197 l-41
39 0 -132z"/>
<path d="M14580 6072 l0 -132 95 0 95 0 -14 35 c-23 54 -80 135 -130 185 l-46
44 0 -132z"/>
<path d="M16550 6073 l0 -133 90 0 c59 0 90 4 90 11 0 27 -68 135 -121 192
l-58 62 -1 -132z"/>
<path d="M6734 5846 c-15 -11 -19 -26 -19 -70 0 -80 11 -85 163 -86 l122 0 0
85 0 85 -123 0 c-91 0 -128 -4 -143 -14z"/>
<path d="M3077 5813 c-4 -3 -7 -395 -7 -870 l0 -863 135 0 135 0 0 870 0 870
-128 0 c-71 0 -132 -3 -135 -7z"/>
<path d="M3420 4950 l0 -870 330 0 330 0 0 870 0 870 -330 0 -330 0 0 -870z"/>
<path d="M4160 4950 l0 -870 115 0 115 0 0 809 c0 444 -3 836 -6 870 l-7 61
-108 0 -109 0 0 -870z"/>
<path d="M5036 5759 c-3 -34 -6 -426 -6 -870 l0 -809 140 0 140 0 0 870 0 870
-134 0 -133 0 -7 -61z"/>
<path d="M5380 4950 l0 -870 335 0 335 0 0 870 0 870 -335 0 -335 0 0 -870z"/>
<path d="M6120 4950 l0 -870 115 0 115 0 -2 868 -3 867 -112 3 -113 3 0 -871z"/>
<path d="M13497 5753 c-4 -38 -7 -429 -7 -870 l0 -803 140 0 140 0 0 870 0
870 -134 0 -133 0 -6 -67z"/>
<path d="M13840 4950 l0 -870 335 0 335 0 0 870 0 870 -335 0 -335 0 0 -870z"/>
<path d="M14580 4950 l0 -870 115 0 115 0 -2 868 -3 867 -112 3 -113 3 0 -871z"/>
<path d="M15466 5783 c-3 -21 -6 -413 -6 -870 l0 -833 135 0 135 0 0 870 0
870 -129 0 -128 0 -7 -37z"/>
<path d="M15810 4950 l0 -870 330 0 330 0 0 870 0 870 -330 0 -330 0 0 -870z"/>
<path d="M16550 4950 l0 -870 115 0 115 0 0 848 c0 466 -3 857 -6 870 -6 21
-11 22 -115 22 l-109 0 0 -870z"/>
<path d="M2140 4860 l0 -100 40 0 40 0 0 -395 c0 -344 -2 -395 -15 -395 -8 0
-15 -7 -15 -15 0 -13 24 -15 155 -15 131 0 155 2 155 15 0 8 -9 15 -20 15 -20
0 -20 7 -20 391 0 382 0 391 20 396 18 5 20 14 20 104 l0 99 -180 0 -180 0 0
-100z m180 -496 l0 -395 -32 3 -33 3 -3 380 c-1 209 0 386 3 392 2 7 18 13 35
13 l30 0 0 -396z m108 -1 l2 -393 -35 0 -35 0 0 396 0 395 33 -3 32 -3 3 -392z"/>
<path d="M17410 4861 c0 -90 2 -99 20 -104 20 -5 20 -14 20 -396 0 -384 0
-391 -20 -391 -11 0 -20 -7 -20 -15 0 -13 24 -15 155 -15 131 0 155 2 155 15
0 8 -7 15 -15 15 -13 0 -15 48 -13 393 l3 392 38 3 37 3 0 100 0 99 -180 0
-180 0 0 -99z m140 -497 l0 -395 -32 3 -33 3 -3 380 c-1 209 0 386 3 392 2 7
18 13 35 13 l30 0 0 -396z m105 1 l0 -390 -32 -3 -33 -3 0 396 0 396 33 -3 32
-3 0 -390z"/>
<path d="M15081 3734 c-12 -15 -21 -41 -21 -60 0 -84 24 -94 234 -94 160 0
209 7 228 35 4 5 8 31 8 57 0 36 -5 52 -22 68 -20 19 -34 20 -214 20 l-193 0
-20 -26z"/>
<path d="M4652 3650 c-27 -25 -30 -94 -6 -128 15 -21 20 -22 212 -22 235 0
242 2 242 80 0 38 -5 54 -22 70 -20 19 -34 20 -213 20 -179 0 -193 -1 -213
-20z"/>
<path d="M5286 3657 c-28 -20 -34 -111 -11 -137 17 -19 32 -20 215 -20 227 0
230 1 237 77 5 43 2 53 -18 72 -22 20 -32 21 -214 21 -143 0 -196 -3 -209 -13z"/>
<path d="M15595 3465 c-29 -29 -34 -88 -9 -123 15 -21 20 -22 218 -22 189 0
204 1 221 20 14 15 17 31 13 70 -8 78 -12 79 -231 80 -186 0 -188 0 -212 -25z"/>
</g>
</svg>
